<svg xmlns="http://www.w3.org/2000/svg" version="1.1" xmlns:xlink="http://www.w3.org/1999/xlink" viewBox="0 0 700 700" style="overflow: hidden; display: block;" width="700" height="700"><defs><linearGradient id="two-557" x1="350" y1="-350" x2="350" y2="350" spreadMethod="pad" gradientUnits="userSpaceOnUse"><stop offset="0%" stop-color="hsl(185, 53%, 55%)" stop-opacity="1"></stop><stop offset="100%" stop-color="hsl(0, 96%, 52%)" stop-opacity="1"></stop></linearGradient></defs><g id="two-0" transform="matrix(1 0 0 1 0 0)" opacity="1"><path transform="matrix(1 0 0 1 350 350)" id="two-1151" d="M 338.80429 80.298091 C 341.639631 107.404119 309.232855 129.972991 285.509239 143.388129 C 257.534773 159.207021 208.374994 132.984301 189.366247 158.897148 C 165.936854 190.836246 239.221132 255.030059 206.717772 277.670156 C 171.662641 302.087681 133.685042 202.528572 93.04942 215.712803 C 63.732162 225.22479 75.48705 279.066989 52.906029 300.045001 C 34.226956 317.398061 5.362698 335.198724 -19.105828 328.034391 C -49.240779 319.210939 -45.445224 261.215057 -75.196062 251.172338 C -102.698132 241.888714 -130.679233 279.706871 -159.501016 276.263862 C -184.254273 273.306873 -209.009566 257.562769 -224.791837 238.265426 C -241.099056 218.326218 -241.306527 188.640905 -249.888121 164.354002 C -257.471432 142.892359 -261.440812 118.806296 -273.667221 99.606722 C -288.804942 75.835406 -335.294765 67.167422 -333.855919 39.02216 C -332.040375 3.508318 -260.536943 4.836809 -250.509646 -29.280379 C -243.649718 -52.620813 -267.840588 -75.693888 -273.178254 -99.428753 C -279.588105 -127.931275 -303.102404 -164.569292 -284.641764 -187.211833 C -263.513625 -213.126145 -207.336018 -171.055236 -183.590631 -194.5947 C -158.177187 -219.787755 -201.164946 -278.533355 -174.747479 -302.671512 C -154.198176 -321.447813 -117.776227 -296.920495 -90.400054 -301.957208 C -65.594072 -306.521054 -43.997843 -325.121068 -19.206578 -329.764192 C 5.874506 -334.461597 35.062923 -340.539409 58.118038 -329.603776 C 84.015932 -317.319741 94.30554 -283.997435 113.210967 -262.452523 C 127.786983 -245.841476 143.160098 -228.992581 159.025435 -213.608231 C 173.740235 -199.339536 187.437592 -182.003844 205.613876 -172.530529 C 233.6088 -157.939827 287.555565 -179.533306 298.574413 -149.949707 C 312.054418 -113.758347 240.744621 -91.933196 230.631272 -54.660616 C 225.888743 -37.182107 226.85881 -15.896133 235.53653 -0.000001 C 256.220789 37.8901 334.313313 37.364079 338.80429 80.298091 Z " fill="hsl(327, 77%, 50%)" stroke="undefined" stroke-width="1" stroke-opacity="1" fill-opacity="1" visibility="visible" stroke-linecap="butt" stroke-linejoin="miter" stroke-miterlimit="4"></path></g></svg>