<svg xmlns="http://www.w3.org/2000/svg" version="1.1" xmlns:xlink="http://www.w3.org/1999/xlink" viewBox="0 0 700 700" style="overflow: hidden; display: block;" width="700" height="700"><defs></defs><g id="two-0" transform="matrix(1 0 0 1 0 0)" opacity="1"><path transform="matrix(1 0 0 1 350 350)" id="two-556" d="M 199.070736 27.361642 C 198.566155 46.578156 234.152563 49.701483 241.207585 67.583195 C 245.609615 78.740614 236.007145 92.291147 239.134365 103.870712 C 246.308278 130.434496 302.489062 152.038723 285.149951 173.403526 C 253.742269 212.103256 194.266481 112.148175 144.742159 117.75648 C 136.318286 118.710429 126.441739 124.34235 123.580822 132.322751 C 115.23384 155.60629 160.927602 186.093623 144.258128 204.367209 C 134.625216 214.927101 113.697242 188.504416 101.705609 196.282915 C 86.349495 206.243818 95.818745 233.297492 88.942662 250.260666 C 82.314832 266.611404 79.087022 298.054867 61.544953 296.170574 C 8.117016 290.431575 38.753073 187.014372 9.700092 141.810336 C 5.244236 134.877393 -0.405093 123.379483 -8.532725 124.744019 C -28.522141 128.100013 -17.296836 182.84694 -37.209217 179.060582 C -55.715652 175.541565 -25.161589 126.744878 -43.472638 122.320279 C -97.036372 109.377383 -85.60393 284.877959 -135.560043 261.619006 C -172.895904 244.235887 -66.030306 164.942485 -100.189141 141.935675 C -144.437179 112.13354 -184.848936 275.833089 -226.633425 242.665145 C -253.834103 221.073626 -197.800302 178.259325 -181.449976 147.620504 C -170.891423 127.834868 -136.43663 109.151142 -146.705845 89.2138 C -154.175405 74.711895 -179.657396 85.366186 -195.968112 85.120962 C -239.88646 84.46067 -308.841437 131.233039 -328.883389 92.148804 C -339.067437 72.288677 -299.170785 57.808426 -286.568259 39.3879 C -278.091235 26.997429 -263.074935 14.995093 -263.803539 0 C -264.595548 -16.299992 -299.585671 -25.473972 -292.58368 -40.214702 C -275.309313 -76.581038 -182.784856 -9.419866 -170.821839 -47.862035 C -161.479678 -77.882302 -258.311554 -77.922467 -245.728686 -106.735031 C -233.024459 -135.825484 -170.948867 -67.190619 -150.725089 -91.657957 C -140.920687 -103.519618 -169.826179 -120.475353 -166.572183 -135.516522 C -164.529674 -144.957752 -151.115509 -148.195999 -146.13561 -156.473031 C -139.925575 -166.794656 -140.910632 -180.742961 -134.985317 -191.230627 C -129.425921 -201.070623 -123.674417 -215.689279 -112.451292 -217.021142 C -93.490364 -219.271262 -82.434247 -175.265403 -65.240686 -183.569697 C -34.501887 -198.416186 -74.58731 -256.184549 -59.610174 -286.859904 C -52.362286 -301.704634 -37.620719 -324.735646 -21.871481 -319.749727 C 23.271118 -305.458413 -34.897762 -183.673899 12.339741 -180.40064 C 59.100757 -177.160398 18.327408 -317.582983 64.908062 -312.354746 C 94.784675 -309.001379 51.018264 -233.285384 79.023648 -222.351237 C 103.141661 -212.934837 119.82552 -286.728052 140.482961 -271.11981 C 190.52149 -233.311959 16.373991 -131.949611 67.509863 -95.639688 C 115.465844 -61.587703 154.396967 -251.237312 200.32376 -214.494374 C 228.147839 -192.2342 145.603592 -155.75847 147.732558 -120.189351 C 148.245583 -111.618125 155.107042 -102.458088 163.025855 -99.138219 C 193.642646 -86.302492 229.51795 -117.639783 262.519481 -114.028303 C 283.934978 -111.684726 323.097583 -112.170971 323.46543 -90.630764 C 324.452717 -32.817668 159.600448 -80.050276 162.128416 -22.284038 C 163.171788 1.557928 226.227867 -23.397565 230.927013 -0.000001 C 233.655745 13.586655 199.434488 13.508453 199.070736 27.361642 Z " fill="hsl(167, 52%, 78%)" stroke="undefined" stroke-width="1" stroke-opacity="1" fill-opacity="1" visibility="visible" stroke-linecap="butt" stroke-linejoin="miter" stroke-miterlimit="4"></path></g></svg>